<svg width="27" height="27" viewBox="0 0 27 27" fill="none" xmlns="http://www.w3.org/2000/svg">
<path d="M11.409 2C9.54811 2 7.72897 2.55183 6.18166 3.58571C4.63435 4.61959 3.42837 6.08908 2.71622 7.80836C2.00408 9.52763 1.81775 11.4195 2.1808 13.2447C2.54385 15.0698 3.43997 16.7464 4.75585 18.0622C6.07173 19.3781 7.74826 20.2742 9.57343 20.6373C11.3986 21.0003 13.2905 20.814 15.0097 20.1019C16.729 19.3897 18.1985 18.1837 19.2324 16.6364C20.2663 15.0891 20.8181 13.27 20.8181 11.409C20.8179 8.91366 19.8266 6.52052 18.0621 4.75602C16.2976 2.99152 13.9044 2.00016 11.409 2V2Z" stroke="#116A55" stroke-width="3" stroke-miterlimit="10"/>
<path d="M18.4288 18.4288L25 25" stroke="#116A55" stroke-width="3" stroke-miterlimit="10" stroke-linecap="round"/>
</svg>
